<?xml version="1.0" standalone="no"?>
<svg xmlns:xlink="http://www.w3.org/1999/xlink" id="wave" style="transform:rotate(180deg); transition: 0.3s" viewBox="0 0 1440 430" version="1.1" xmlns="http://www.w3.org/2000/svg"><defs><linearGradient id="sw-gradient-0" x1="0" x2="0" y1="1" y2="0"><stop stop-color="rgba(64, 84, 178, 1)" offset="0%"/><stop stop-color="rgba(110, 193, 228, 0.86)" offset="100%"/></linearGradient></defs><path style="transform:translate(0, 0px); opacity:1" fill="url(#sw-gradient-0)" d="M0,43L80,35.8C160,29,320,14,480,57.3C640,100,800,201,960,200.7C1120,201,1280,100,1440,50.2C1600,0,1760,0,1920,21.5C2080,43,2240,86,2400,114.7C2560,143,2720,158,2880,193.5C3040,229,3200,287,3360,265.2C3520,244,3680,143,3840,121.8C4000,100,4160,158,4320,200.7C4480,244,4640,272,4800,265.2C4960,258,5120,215,5280,200.7C5440,186,5600,201,5760,207.8C5920,215,6080,215,6240,179.2C6400,143,6560,72,6720,100.3C6880,129,7040,258,7200,301C7360,344,7520,301,7680,236.5C7840,172,8000,86,8160,107.5C8320,129,8480,258,8640,286.7C8800,315,8960,244,9120,207.8C9280,172,9440,172,9600,193.5C9760,215,9920,258,10080,279.5C10240,301,10400,301,10560,272.3C10720,244,10880,186,11040,193.5C11200,201,11360,272,11440,308.2L11520,344L11520,430L11440,430C11360,430,11200,430,11040,430C10880,430,10720,430,10560,430C10400,430,10240,430,10080,430C9920,430,9760,430,9600,430C9440,430,9280,430,9120,430C8960,430,8800,430,8640,430C8480,430,8320,430,8160,430C8000,430,7840,430,7680,430C7520,430,7360,430,7200,430C7040,430,6880,430,6720,430C6560,430,6400,430,6240,430C6080,430,5920,430,5760,430C5600,430,5440,430,5280,430C5120,430,4960,430,4800,430C4640,430,4480,430,4320,430C4160,430,4000,430,3840,430C3680,430,3520,430,3360,430C3200,430,3040,430,2880,430C2720,430,2560,430,2400,430C2240,430,2080,430,1920,430C1760,430,1600,430,1440,430C1280,430,1120,430,960,430C800,430,640,430,480,430C320,430,160,430,80,430L0,430Z"/></svg>